HIERARCHY
ROOT Hips
{
	OFFSET 0.00000 0.00000 0.00000
	CHANNELS 6 Xposition Yposition Zposition Zrotation Yrotation Xrotation 
	JOINT LHipJoint
	{
		OFFSET 0 0 0
		CHANNELS 3 Zrotation Yrotation Xrotation
		JOINT LeftUpLeg
		{
			OFFSET 1.57338 -1.94743 0.52196
			CHANNELS 3 Zrotation Yrotation Xrotation
			JOINT LeftLeg
			{
				OFFSET 2.60333 -7.15259 0.00000
				CHANNELS 3 Zrotation Yrotation Xrotation
				JOINT LeftFoot
				{
					OFFSET 2.77855 -7.63400 0.00000
					CHANNELS 3 Zrotation Yrotation Xrotation
					JOINT LeftToeBase
					{
						OFFSET 0.19847 -0.54529 2.28466
						CHANNELS 3 Zrotation Yrotation Xrotation
						End Site
						{
							OFFSET 0.00000 -0.00000 1.17993
						}
					}
				}
			}
		}
	}
	JOINT RHipJoint
	{
		OFFSET 0 0 0
		CHANNELS 3 Zrotation Yrotation Xrotation
		JOINT RightUpLeg
		{
			OFFSET -1.61527 -1.94743 0.52196
			CHANNELS 3 Zrotation Yrotation Xrotation
			JOINT RightLeg
			{
				OFFSET -2.53829 -6.97390 0.00000
				CHANNELS 3 Zrotation Yrotation Xrotation
				JOINT RightFoot
				{
					OFFSET -2.80762 -7.71387 0.00000
					CHANNELS 3 Zrotation Yrotation Xrotation
					JOINT RightToeBase
					{
						OFFSET -0.30536 -0.83898 2.28801
						CHANNELS 3 Zrotation Yrotation Xrotation
						End Site
						{
							OFFSET -0.00000 -0.00000 1.21323
						}
					}
				}
			}
		}
	}
	JOINT LowerBack
	{
		OFFSET 0 0 0
		CHANNELS 3 Zrotation Yrotation Xrotation
		JOINT Spine
		{
			OFFSET -0.04381 1.99497 -0.19778
			CHANNELS 3 Zrotation Yrotation Xrotation
			JOINT Spine1
			{
				OFFSET -0.01959 2.01295 -0.04372
				CHANNELS 3 Zrotation Yrotation Xrotation
				JOINT Neck
				{
					OFFSET 0 0 0
					CHANNELS 3 Zrotation Yrotation Xrotation
					JOINT Neck1
					{
						OFFSET -0.05459 1.76913 0.09708
						CHANNELS 3 Zrotation Yrotation Xrotation
						JOINT Head
						{
							OFFSET 0.09461 1.77368 -0.11172
							CHANNELS 3 Zrotation Yrotation Xrotation
							End Site
							{
								OFFSET 0.03812 1.78157 -0.04834
							}
						}
					}
				}
				JOINT LeftShoulder
				{
					OFFSET 0 0 0
					CHANNELS 3 Zrotation Yrotation Xrotation
					JOINT LeftArm
					{
						OFFSET 3.50922 1.24034 -0.28866
						CHANNELS 3 Zrotation Yrotation Xrotation
						JOINT LeftForeArm
						{
							OFFSET 5.40188 -0.00000 0.00000
							CHANNELS 3 Zrotation Yrotation Xrotation
							JOINT LeftHand
							{
								OFFSET 3.68559 -0.00000 0.00000
								CHANNELS 3 Zrotation Yrotation Xrotation
								JOINT LeftFingerBase
								{
									OFFSET 0 0 0
									CHANNELS 3 Zrotation Yrotation Xrotation
									JOINT LeftHandIndex1
									{
										OFFSET 0.61753 -0.00000 0.00000
										CHANNELS 3 Zrotation Yrotation Xrotation
										End Site
										{
											OFFSET 0.49787 -0.00000 0.00000
										}
									}
								}
								JOINT LThumb
								{
									OFFSET 0 0 0
									CHANNELS 3 Zrotation Yrotation Xrotation
									End Site
									{
										OFFSET 0.50547 -0.00000 0.50547
									}
								}
							}
						}
					}
				}
				JOINT RightShoulder
				{
					OFFSET 0 0 0
					CHANNELS 3 Zrotation Yrotation Xrotation
					JOINT RightArm
					{
						OFFSET -2.95373 1.39649 -0.27346
						CHANNELS 3 Zrotation Yrotation Xrotation
						JOINT RightForeArm
						{
							OFFSET -6.10670 -0.00000 -0.00000
							CHANNELS 3 Zrotation Yrotation Xrotation
							JOINT RightHand
							{
								OFFSET -3.63052 -0.00000 0.00000
								CHANNELS 3 Zrotation Yrotation Xrotation
								JOINT RightFingerBase
								{
									OFFSET 0 0 0
									CHANNELS 3 Zrotation Yrotation Xrotation
									JOINT RightHandIndex1
									{
										OFFSET -0.58385 -0.00000 0.00000
										CHANNELS 3 Zrotation Yrotation Xrotation
										End Site
										{
											OFFSET -0.47071 -0.00000 0.00000
										}
									}
								}
								JOINT RThumb
								{
									OFFSET 0 0 0
									CHANNELS 3 Zrotation Yrotation Xrotation
									End Site
									{
										OFFSET -0.47790 -0.00000 0.47790
									}
								}
							}
						}
					}
				}
			}
		}
	}
}
MOTION
Frames: 15
Frame Time: .0083333
0.475 18.983 -2.3949 0 0 0 0 0 0 -21 0 0 0 0 0 0 0 0 0 0 0 0 0 0 21 0 0 0 0 0 0 0 0 0 0 0 0 0 0 0 0 0 0 0 0 0 0 -16 0 0 21 0 0 11 0 0 0 -8 0 0 0 0 0 0 0 0 0 0 0 0 0 0 0 0 0 0 0 0 8 0 0 0 0 0 0 0 0 0 0 0 0 0 0 0 0 0
0.4750 18.9830 -2.3949 1.5404 -3.2211 2.6461 0.0000 0.0000 0.0000 -21.1069 -7.5388 0.6209 0.3823 3.9706 10.9941 -0.0190 12.0476 -16.8841 0.0420 -1.3226 -3.6369 0.0000 0.0000 0.0000 18.3615 21.0306 4.3142 -0.6393 -5.1155 14.2382 -0.0831 -13.2346 -19.7843 -0.0064 0.5176 -1.4224 -2.9397 0.7413 4.0738 -1.6542 0.8047 -0.1378 -0.1014 0.4274 -2.4433 -8.8451 -2.5144 -9.6868 9.8691 -3.2615 9.6329 4.3006 -1.3369 4.7781 -0.0000 -0.0000 0.0000 -85.9498 4.1662 4.4547 13.6275 -22.1997 -2.6857 -0.0000 -0.0000 3.1709 19.7793 24.9392 8.6223 -7.1250 0.0000 -0.0000 -10.6297 55.9605 -2.8814 -0.0000 -0.0000 0.0000 84.1057 -4.1119 20.9899 -15.0075 24.1565 -3.2290 0.0000 0.0000 18.4018 -21.7330 -0.4565 0.1820 7.1250 -0.0000 -0.0000 3.8272 -30.4593 1.3616
0.4748 18.9825 -2.4002 1.4702 -3.2255 2.6763 0.0000 0.0000 0.0000 -21.0191 -7.5679 0.4460 0.3978 4.0498 11.2167 -0.0104 11.9955 -16.9258 0.0429 -1.3374 -3.6776 0.0000 0.0000 0.0000 18.4217 21.0483 4.2960 -0.6338 -5.0938 14.1764 -0.0785 -13.2531 -19.7575 -0.0067 0.5305 -1.4576 -2.8835 0.7456 4.1199 -1.6281 0.8124 -0.1153 -0.1068 0.4306 -2.4458 -8.7938 -2.4995 -9.5934 9.8042 -3.2392 9.4970 4.2722 -1.3310 4.7168 0.0000 -0.0000 0.0000 -85.8469 4.1174 4.8735 13.5595 -22.1014 -2.6601 -0.0000 -0.0000 2.6239 19.9191 24.6650 8.5992 -7.1250 0.0000 -0.0000 -10.3582 55.7117 -2.7439 0.0000 -0.0000 0.0000 84.1062 -4.1034 21.0675 -15.0735 24.2484 -3.2561 0.0000 0.0000 18.2672 -21.5479 -0.3291 0.1300 7.1250 -0.0000 -0.0000 3.9679 -30.3210 1.4250
0.4744 18.9824 -2.4066 1.3981 -3.2637 2.7193 0.0000 0.0000 0.0000 -20.9284 -7.5968 0.3497 0.4027 4.0739 11.2847 -0.0040 11.9507 -16.9492 0.0383 -1.2636 -3.4744 0.0000 0.0000 0.0000 18.4873 21.1607 4.2469 -0.6357 -5.1013 14.1978 -0.0760 -13.2917 -19.7804 -0.0058 0.4937 -1.3566 -2.8155 0.7900 4.2094 -1.6232 0.8709 -0.1301 -0.1450 0.4596 -2.5114 -8.7738 -2.4982 -9.5026 9.8451 -3.2482 9.4406 4.2812 -1.3349 4.6855 -0.0000 -0.0000 0.0000 -85.7438 4.1217 5.1269 13.5001 -22.0156 -2.6378 -0.0000 -0.0000 2.3842 20.2224 24.3563 8.6383 -7.1250 0.0000 -0.0000 -9.9050 55.4601 -2.5614 -0.0000 -0.0000 0.0000 84.1438 -4.1559 21.0914 -15.1246 24.3194 -3.2771 0.0000 0.0000 18.2246 -21.6078 -0.3036 0.1203 7.1250 -0.0000 -0.0000 3.9194 -30.2942 1.4100
0.4755 18.9834 -2.4108 1.3986 -3.2735 2.7412 0.0000 0.0000 0.0000 -20.9243 -7.5963 0.2559 0.4085 4.1031 11.3669 -0.0016 11.9214 -16.9411 0.0391 -1.2760 -3.5086 0.0000 0.0000 0.0000 18.4684 21.1959 4.1899 -0.6382 -5.1109 14.2253 -0.0782 -13.2626 -19.7663 -0.0056 0.4820 -1.3243 -2.8111 0.8088 4.2714 -1.6213 0.8945 -0.0967 -0.1477 0.4711 -2.5122 -8.8249 -2.4898 -9.5189 9.9154 -3.2340 9.4020 4.3128 -1.3254 4.6771 0.0000 0.0000 0.0000 -85.7273 4.0527 5.1555 13.4936 -22.0061 -2.6354 -0.0000 -0.0000 2.3804 20.4371 24.2629 8.7058 -7.1250 0.0000 -0.0000 -9.6412 55.4085 -2.4801 0.0000 0.0000 0.0000 84.1490 -4.1056 21.0852 -15.1486 24.3527 -3.2870 0.0000 0.0000 18.2214 -21.7515 -0.4076 0.1626 7.1250 -0.0000 -0.0000 3.8105 -30.4068 1.3604
0.4796 18.9834 -2.4126 1.4672 -3.2444 2.7685 0.0000 0.0000 0.0000 -21.0114 -7.6336 0.2056 0.4115 4.1177 11.4080 0.0012 11.9164 -16.9712 0.0391 -1.2768 -3.5107 0.0000 0.0000 0.0000 18.3463 21.1395 4.0721 -0.6453 -5.1389 14.3051 -0.0890 -13.1742 -19.7706 -0.0050 0.4550 -1.2503 -2.8401 0.7922 4.2726 -1.6436 0.8726 -0.0190 -0.1521 0.4591 -2.4326 -8.7784 -2.5101 -9.6546 9.8565 -3.2499 9.3818 4.2843 -1.3316 4.6937 -0.0000 0.0000 0.0000 -85.7203 3.9407 5.1580 13.5260 -22.0531 -2.6475 -0.0000 -0.0000 2.3128 20.3309 23.9361 8.5492 -7.1250 0.0000 -0.0000 -9.6109 55.0543 -2.3892 -0.0000 0.0000 0.0000 84.1330 -3.9918 21.1600 -15.1726 24.3859 -3.2969 0.0000 0.0000 18.1745 -21.9817 -0.4853 0.1959 7.1250 -0.0000 -0.0000 3.6318 -30.4923 1.2890
0.4819 18.9820 -2.4164 1.4654 -3.2525 2.7931 0.0000 0.0000 0.0000 -21.0142 -7.6415 0.1602 0.4122 4.1213 11.4182 0.0006 11.9332 -16.9875 0.0400 -1.2903 -3.5480 0.0000 0.0000 0.0000 18.3118 21.1192 3.9425 -0.6566 -5.1829 14.4309 -0.0899 -13.1344 -19.7279 -0.0044 0.4299 -1.1813 -2.8166 0.7846 4.3040 -1.6542 0.8642 0.0519 -0.1753 0.4536 -2.3765 -8.6377 -2.5291 -9.8089 9.7112 -3.2669 9.3682 4.2124 -1.3395 4.7127 -0.0000 0.0000 0.0000 -85.7004 3.8542 5.0959 13.6016 -22.1623 -2.6760 -0.0000 -0.0000 2.3756 19.7873 24.1254 8.3655 -7.1250 0.0000 -0.0000 -10.2542 55.1387 -2.5726 -0.0000 0.0000 0.0000 84.1628 -3.9111 21.1565 -15.2146 24.4442 -3.3142 0.0000 0.0000 18.2221 -22.0893 -0.3045 0.1236 7.1250 -0.0000 -0.0000 3.5392 -30.2984 1.2724
0.4831 18.9800 -2.4190 1.5372 -3.2688 2.7644 0.0000 0.0000 0.0000 -21.0974 -7.5955 0.1498 0.4127 4.1237 11.4250 0.0024 11.8987 -16.9624 0.0399 -1.2894 -3.5454 0.0000 0.0000 0.0000 18.2243 21.1129 3.8620 -0.6713 -5.2394 14.5926 -0.0871 -13.1195 -19.6768 -0.0032 0.3649 -1.0026 -2.8783 0.8015 4.3746 -1.6732 0.8819 0.1103 -0.1619 0.4624 -2.3570 -8.6250 -2.5105 -9.8824 9.7034 -3.2396 9.4078 4.2098 -1.3240 4.7342 -0.0000 0.0000 0.0000 -85.6962 3.8016 5.0973 13.6953 -22.2974 -2.7114 -0.0000 -0.0000 2.5711 19.4151 25.2668 8.5553 -7.1250 0.0000 -0.0000 -11.1647 56.2157 -3.0983 -0.0000 0.0000 0.0000 84.1556 -3.8972 21.2286 -15.2602 24.5073 -3.3331 0.0000 0.0000 18.0681 -22.1450 -0.1774 0.0722 7.1250 -0.0000 -0.0000 3.4901 -30.1619 1.2661
0.4847 18.9786 -2.4215 1.6389 -3.2368 2.7658 0.0000 0.0000 0.0000 -21.2034 -7.5771 0.0783 0.4169 4.1443 11.4831 0.0059 11.8072 -16.8815 0.0385 -1.2661 -3.4814 0.0000 0.0000 0.0000 18.1047 21.1604 3.7677 -0.6871 -5.2996 14.7651 -0.1000 -13.0841 -19.7749 -0.0016 0.2579 -0.7085 -2.9679 0.7941 4.4389 -1.6910 0.8648 0.1294 -0.1298 0.4548 -2.3742 -8.7501 -2.4683 -9.8238 9.8483 -3.1819 9.3552 4.2811 -1.2934 4.7070 -0.0000 0.0000 0.0000 -85.7113 3.8186 5.0375 13.7319 -22.3501 -2.7253 -0.0000 -0.0000 2.6367 19.6076 25.4966 8.7180 -7.1250 0.0000 -0.0000 -11.0742 56.4870 -3.1458 -0.0000 0.0000 0.0000 84.1344 -3.9180 21.2875 -15.2951 24.5556 -3.3476 0.0000 0.0000 17.9895 -22.0794 -0.1499 0.0608 7.1250 -0.0000 -0.0000 3.5408 -30.1318 1.2871
0.4873 18.9767 -2.4257 1.7448 -3.1980 2.7633 0.0000 0.0000 0.0000 -21.3195 -7.5438 0.0015 0.4220 4.1692 11.5533 0.0126 11.7062 -16.8314 0.0374 -1.2475 -3.4300 0.0000 0.0000 0.0000 17.9700 21.1382 3.6444 -0.7040 -5.3630 14.9469 -0.1163 -13.0298 -19.8866 -0.0011 0.2177 -0.5981 -3.1038 0.7736 4.5694 -1.6826 0.8243 0.1176 -0.0445 0.4371 -2.4609 -8.8390 -2.4178 -9.7661 9.9364 -3.1130 9.3257 4.3292 -1.2593 4.6843 0.0000 -0.0000 0.0000 -85.7291 3.8712 5.1024 13.7289 -22.3458 -2.7242 -0.0000 -0.0000 2.4545 19.7279 24.9370 8.5976 -7.1250 0.0000 -0.0000 -10.6823 55.9478 -2.8926 0.0000 -0.0000 0.0000 84.0452 -3.9833 21.4692 -15.3192 24.5889 -3.3576 0.0000 0.0000 17.8486 -22.0989 -0.0272 0.0111 7.1250 -0.0000 -0.0000 3.5207 -29.9999 1.2908
0.4881 18.9753 -2.4302 1.7497 -3.2239 2.7837 0.0000 0.0000 0.0000 -21.3104 -7.4825 -0.1017 0.4284 4.2005 11.6414 0.0315 11.5565 -16.8802 0.0304 -1.1250 -3.0928 0.0000 0.0000 0.0000 17.9418 21.1694 3.5027 -0.7219 -5.4292 15.1368 -0.1309 -12.9381 -19.9301 -0.0009 0.1911 -0.5251 -3.1415 0.7890 4.6698 -1.6590 0.8387 0.1183 -0.0016 0.4455 -2.5177 -8.9416 -2.4016 -9.6597 10.0208 -3.0885 9.2412 4.3747 -1.2492 4.6410 0.0000 0.0000 0.0000 -85.6787 3.9097 5.4432 13.7435 -22.3668 -2.7297 -0.0000 -0.0000 2.1275 19.9023 24.6682 8.5925 -7.1250 0.0000 -0.0000 -10.3772 55.7117 -2.7490 0.0000 0.0000 0.0000 83.9893 -3.9995 21.5461 -15.3214 24.5919 -3.3585 0.0000 0.0000 17.7770 -22.0926 0.1728 -0.0701 7.1250 -0.0000 -0.0000 3.5181 -29.7844 1.3080
0.4885 18.9740 -2.4336 1.7823 -3.2367 2.8213 0.0000 0.0000 0.0000 -21.3324 -7.4894 -0.2391 0.4393 4.2528 11.7890 0.0480 11.4471 -16.9525 0.0299 -1.1158 -3.0676 0.0000 0.0000 0.0000 17.8727 21.1875 3.3351 -0.7392 -5.4924 15.3183 -0.1456 -12.8552 -19.9858 -0.0007 0.1736 -0.4769 -3.1973 0.7872 4.6905 -1.6485 0.8337 0.1498 0.0408 0.4432 -2.4977 -8.9623 -2.3831 -9.6045 9.9807 -3.0556 9.1734 4.3674 -1.2379 4.6075 -0.0000 0.0000 0.0000 -85.6566 3.9418 5.6866 13.7920 -22.4366 -2.7482 -0.0000 -0.0000 1.8667 20.0617 24.5984 8.6435 -7.1250 0.0000 -0.0000 -10.1798 55.6733 -2.6864 -0.0000 0.0000 0.0000 83.9519 -3.8858 21.5821 -15.2692 24.5197 -3.3368 0.0000 0.0000 17.7528 -22.1840 0.0893 -0.0364 7.1250 -0.0000 -0.0000 3.4493 -29.8746 1.2749
0.4876 18.9719 -2.4380 1.8151 -3.2391 2.7996 0.0000 0.0000 0.0000 -21.3624 -7.4678 -0.3643 0.4542 4.3236 11.9889 0.0554 11.3904 -16.9751 0.0273 -1.0659 -2.9301 0.0000 0.0000 0.0000 17.8413 21.2145 3.2266 -0.7576 -5.5589 15.5097 -0.1496 -12.8565 -20.0326 -0.0011 0.2140 -0.5880 -3.2642 0.8108 4.8109 -1.6491 0.8576 0.2071 0.0747 0.4555 -2.5078 -8.9271 -2.3905 -9.7276 9.9452 -3.0618 9.2467 4.3499 -1.2382 4.6502 -0.0000 -0.0000 0.0000 -85.6171 3.8628 5.6326 13.7820 -22.4222 -2.7444 -0.0000 -0.0000 1.9781 19.8773 24.5731 8.5504 -7.1250 0.0000 -0.0000 -10.3601 55.6102 -2.7188 -0.0000 -0.0000 0.0000 83.9326 -3.7979 21.6157 -15.2574 24.5034 -3.3320 0.0000 0.0000 17.7057 -22.1532 -0.0646 0.0263 7.1250 -0.0000 -0.0000 3.4793 -30.0403 1.2723
0.4879 18.9690 -2.4456 1.7360 -3.2860 2.8214 0.0000 0.0000 0.0000 -21.2650 -7.4866 -0.5456 0.4706 4.3997 12.2039 0.0582 11.3934 -17.0162 0.0306 -1.1289 -3.1036 0.0000 0.0000 0.0000 17.8998 21.2340 3.0032 -0.7794 -5.6365 15.7333 -0.1492 -12.8247 -19.9875 -0.0035 0.3827 -1.0516 -3.1963 0.8388 4.9278 -1.6344 0.8958 0.2810 0.0482 0.4731 -2.4972 -8.8531 -2.3981 -9.9930 9.9025 -3.0647 9.3528 4.3238 -1.2321 4.7258 -0.0000 -0.0000 0.0000 -85.5841 3.7224 5.4647 13.7917 -22.4362 -2.7481 -0.0000 -0.0000 2.1774 19.8877 24.8681 8.6500 -7.1250 0.0000 -0.0000 -10.4838 55.9109 -2.8286 -0.0000 -0.0000 0.0000 83.9389 -3.6867 21.6577 -15.2790 24.5333 -3.3409 0.0000 0.0000 17.6446 -22.1121 -0.0793 0.0322 7.1250 -0.0000 -0.0000 3.5122 -30.0560 1.2830
0.4883 18.9665 -2.4535 1.7309 -3.3340 2.8538 0.0000 0.0000 0.0000 -21.2463 -7.4749 -0.7692 0.4898 4.4876 12.4526 0.0657 11.3336 -17.0358 0.0341 -1.1921 -3.2776 0.0000 0.0000 0.0000 17.8463 21.1929 2.7193 -0.8057 -5.7287 15.9992 -0.1707 -12.6474 -19.9994 -0.0034 0.3754 -1.0315 -3.1705 0.8853 4.9851 -1.6698 0.9583 0.3659 -0.0070 0.5025 -2.4424 -8.7706 -2.4287 -10.0418 9.8929 -3.1092 9.2826 4.3027 -1.2506 4.7157 -0.0000 -0.0000 0.0000 -85.5014 3.6171 5.6096 13.8724 -22.5520 -2.7790 -0.0000 -0.0000 2.1053 20.0180 25.2212 8.8244 -7.1250 0.0000 -0.0000 -10.5120 56.2948 -2.9344 -0.0000 -0.0000 0.0000 84.0117 -3.5432 21.5047 -15.2924 24.5518 -3.3465 0.0000 0.0000 17.7806 -22.1030 0.1025 -0.0416 7.1250 -0.0000 -0.0000 3.5125 -29.8602 1.2996
